<svg width="550" height="193" viewBox="0 0 550 193" fill="none" xmlns="http://www.w3.org/2000/svg">
<path d="M461 48.8784C461 44.5679 463.762 40.7424 467.854 39.3862L536.854 16.5155C543.326 14.3702 550 19.1891 550 26.0076V96.158H461L461 48.8784Z" fill="#333333"/>
<path d="M461 48.8784C461 44.5679 463.762 40.7424 467.854 39.3862L536.854 16.5155C543.326 14.3702 550 19.1891 550 26.0076V96.158H461L461 48.8784Z" fill="black" fill-opacity="0.3"/>
<path d="M461 143.438C461 147.748 463.762 151.574 467.854 152.93L536.854 175.801C543.326 177.946 550 173.127 550 166.308V96.158H461L461 143.438Z" fill="#333333"/>
<path d="M461 143.438C461 147.748 463.762 151.574 467.854 152.93L536.854 175.801C543.326 177.946 550 173.127 550 166.308V96.158H461L461 143.438Z" fill="black" fill-opacity="0.3"/>
<g filter="url(#filter0_d_16_194)">
<path d="M409 48.8784C409 44.5679 411.762 40.7424 415.854 39.3862L484.854 16.5155C491.326 14.3702 498 19.1891 498 26.0076V96.158H409L409 48.8784Z" fill="url(#paint0_linear_16_194)"/>
<path d="M409 48.8784C409 44.5679 411.762 40.7424 415.854 39.3862L484.854 16.5155C491.326 14.3702 498 19.1891 498 26.0076V96.158H409L409 48.8784Z" fill="black" fill-opacity="0.25"/>
<path d="M409 143.438C409 147.748 411.762 151.574 415.854 152.93L484.854 175.801C491.326 177.946 498 173.127 498 166.308V96.158H409L409 143.438Z" fill="url(#paint1_linear_16_194)"/>
<path d="M409 143.438C409 147.748 411.762 151.574 415.854 152.93L484.854 175.801C491.326 177.946 498 173.127 498 166.308V96.158H409L409 143.438Z" fill="black" fill-opacity="0.25"/>
<path d="M409.5 48.8784C409.5 44.7834 412.124 41.1492 416.011 39.8608L485.011 16.9901C491.16 14.952 497.5 19.53 497.5 26.0076V95.658H409.5V48.8784ZM409.5 96.658H497.5V166.308C497.5 172.786 491.16 177.364 485.011 175.326L416.011 152.455C412.124 151.167 409.5 147.533 409.5 143.438V96.658Z" stroke="url(#paint2_linear_16_194)"/>
</g>
<g filter="url(#filter1_d_16_194)">
<path d="M354 49.0364C354 44.7258 356.762 40.9004 360.854 39.5442L429.854 16.6734C436.326 14.5281 443 19.3471 443 26.1656V96.3159H354L354 49.0364Z" fill="url(#paint3_linear_16_194)"/>
<path d="M354 49.0364C354 44.7258 356.762 40.9004 360.854 39.5442L429.854 16.6734C436.326 14.5281 443 19.3471 443 26.1656V96.3159H354L354 49.0364Z" fill="black" fill-opacity="0.2"/>
<path d="M354 143.596C354 147.906 356.762 151.731 360.854 153.088L429.854 175.958C436.326 178.104 443 173.285 443 166.466V96.3159H354L354 143.596Z" fill="url(#paint4_linear_16_194)"/>
<path d="M354 143.596C354 147.906 356.762 151.731 360.854 153.088L429.854 175.958C436.326 178.104 443 173.285 443 166.466V96.3159H354L354 143.596Z" fill="black" fill-opacity="0.2"/>
<path d="M354.5 49.0364C354.5 44.9414 357.124 41.3072 361.011 40.0188L430.011 17.148C436.16 15.11 442.5 19.688 442.5 26.1656V95.8159H354.5V49.0364ZM354.5 96.8159H442.5V166.466C442.5 172.944 436.16 177.522 430.011 175.484L361.011 152.613C357.124 151.325 354.5 147.691 354.5 143.596V96.8159Z" stroke="url(#paint5_linear_16_194)"/>
</g>
<g filter="url(#filter2_i_16_194)">
<path fill-rule="evenodd" clip-rule="evenodd" d="M381.019 106.558C381.735 108.315 380.947 110.203 379.258 110.774C377.414 111.398 376.154 112.109 375.406 112.774C374.667 113.431 374.641 113.834 374.641 113.914C374.641 114 374.675 114.483 375.611 115.398C376.543 116.309 378.082 117.343 380.268 118.357C384.615 120.374 390.843 121.999 397.886 122.615C404.928 123.231 411.157 122.696 415.504 121.44C417.69 120.808 419.228 120.043 420.16 119.295C421.096 118.544 421.13 118.067 421.13 117.982C421.13 117.9 421.104 117.493 420.366 116.708C419.618 115.913 418.358 114.981 416.511 114.032C414.823 113.165 414.036 111.139 414.754 109.507C415.471 107.875 417.42 107.256 419.108 108.124C421.396 109.299 423.456 110.696 424.995 112.333C426.544 113.98 427.772 116.108 427.772 118.563C427.772 121.239 426.319 123.263 424.566 124.669C422.81 126.079 420.457 127.128 417.836 127.886C412.568 129.408 405.514 129.949 397.886 129.281C390.258 128.614 383.204 126.839 377.936 124.395C375.314 123.179 372.962 121.718 371.206 120.001C369.453 118.288 368 116.01 368 113.333C368 110.881 369.227 108.967 370.776 107.59C372.315 106.222 374.376 105.184 376.665 104.409C378.354 103.838 380.303 104.8 381.019 106.558Z" fill="#1C1C1C"/>
<path fill-rule="evenodd" clip-rule="evenodd" d="M400.336 115.079L400.353 115.064L400.393 115.021L400.542 114.867L401.094 114.295C403.854 111.383 406.456 108.321 408.89 105.121C411.022 102.307 413.207 99.0985 414.871 95.8674C416.498 92.7098 417.81 89.1945 417.81 85.8378C417.81 73.9278 409.116 63.5973 397.886 62.6147C386.655 61.6322 377.962 70.4383 377.962 82.3516C377.962 85.7083 379.274 89.453 380.901 92.8954C382.564 96.4176 384.753 100.009 386.878 103.195C389.475 107.06 392.263 110.801 395.229 114.402L395.379 114.582L395.419 114.632L395.435 114.65C395.746 115.019 396.125 115.325 396.547 115.549C396.969 115.772 397.425 115.908 397.886 115.949C398.347 115.989 398.803 115.933 399.225 115.783C399.647 115.633 400.025 115.393 400.336 115.079ZM397.886 75.9481C396.124 75.794 394.435 76.3486 393.19 77.4898C391.944 78.6311 391.245 80.2656 391.245 82.0337C391.245 83.8018 391.944 85.5587 393.19 86.9179C394.435 88.2771 396.124 89.1273 397.886 89.2814C399.647 89.4355 401.336 88.8809 402.582 87.7396C403.827 86.5984 404.527 84.9639 404.527 83.1958C404.527 81.4277 403.827 79.6708 402.582 78.3115C401.336 76.9523 399.647 76.1022 397.886 75.9481Z" fill="#1C1C1C"/>
</g>
<path fill-rule="evenodd" clip-rule="evenodd" d="M391.162 82.0264C391.162 78.3445 394.135 75.6199 397.803 75.9408C401.471 76.2617 404.444 79.5066 404.444 83.1885C404.444 86.8704 401.471 89.595 397.803 89.2741C394.135 88.9532 391.162 85.7083 391.162 82.0264Z" fill="url(#paint6_linear_16_194)"/>
<path d="M89 48.8784C89 44.5679 86.2379 40.7424 82.1463 39.3862L13.1463 16.5155C6.67406 14.3702 0 19.1891 0 26.0076V96.158H89L89 48.8784Z" fill="#333333"/>
<path d="M89 48.8784C89 44.5679 86.2379 40.7424 82.1463 39.3862L13.1463 16.5155C6.67406 14.3702 0 19.1891 0 26.0076V96.158H89L89 48.8784Z" fill="black" fill-opacity="0.3"/>
<path d="M89 143.438C89 147.748 86.2379 151.574 82.1463 152.93L13.1463 175.801C6.67406 177.946 0 173.127 0 166.308V96.158H89L89 143.438Z" fill="#333333"/>
<path d="M89 143.438C89 147.748 86.2379 151.574 82.1463 152.93L13.1463 175.801C6.67406 177.946 0 173.127 0 166.308V96.158H89L89 143.438Z" fill="black" fill-opacity="0.3"/>
<g filter="url(#filter3_d_16_194)">
<path d="M162 48.8136C162 44.5116 158.586 40.6937 153.529 39.3402L68.2482 16.5144C60.2488 14.3734 52 19.1828 52 25.9879V96H162L162 48.8136Z" fill="url(#paint7_linear_16_194)"/>
<path d="M162 48.8136C162 44.5116 158.586 40.6937 153.529 39.3402L68.2482 16.5144C60.2488 14.3734 52 19.1828 52 25.9879V96H162L162 48.8136Z" fill="black" fill-opacity="0.25"/>
<path d="M162 143.186C162 147.488 158.586 151.306 153.529 152.66L68.2482 175.486C60.2488 177.627 52 172.817 52 166.012V96H162L162 143.186Z" fill="url(#paint8_linear_16_194)"/>
<path d="M162 143.186C162 147.488 158.586 151.306 153.529 152.66L68.2482 175.486C60.2488 177.627 52 172.817 52 166.012V96H162L162 143.186Z" fill="black" fill-opacity="0.25"/>
<path d="M161.5 48.8136C161.5 44.7978 158.302 41.1352 153.4 39.8231L68.1189 16.9974C64.2487 15.9615 60.3237 16.6097 57.3762 18.3283C54.4277 20.0474 52.5 22.8052 52.5 25.9879V95.5H161.5V48.8136ZM161.5 96.5H52.5V166.012C52.5 169.195 54.4277 171.953 57.3762 173.672C60.3237 175.39 64.2487 176.038 68.1189 175.003L153.4 152.177C158.302 150.865 161.5 147.202 161.5 143.186V96.5Z" stroke="url(#paint9_linear_16_194)"/>
</g>
<g filter="url(#filter4_d_16_194)">
<path d="M235 48.8136C235 44.5116 231.028 40.6937 225.143 39.3402L125.907 16.5144C116.599 14.3734 107 19.1828 107 25.9879V96H235L235 48.8136Z" fill="url(#paint10_linear_16_194)"/>
<path d="M235 48.8136C235 44.5116 231.028 40.6937 225.143 39.3402L125.907 16.5144C116.599 14.3734 107 19.1828 107 25.9879V96H235L235 48.8136Z" fill="black" fill-opacity="0.2"/>
<path d="M235 143.186C235 147.488 231.028 151.306 225.143 152.66L125.907 175.486C116.599 177.627 107 172.817 107 166.012V96H235L235 143.186Z" fill="url(#paint11_linear_16_194)"/>
<path d="M235 143.186C235 147.488 231.028 151.306 225.143 152.66L125.907 175.486C116.599 177.627 107 172.817 107 166.012V96H235L235 143.186Z" fill="black" fill-opacity="0.2"/>
<path d="M234.5 48.8136C234.5 44.848 230.808 41.1562 225.031 39.8274L125.795 17.0017C121.251 15.9566 116.644 16.6113 113.187 18.3434C109.72 20.0807 107.5 22.8446 107.5 25.9879V95.5H234.5V48.8136ZM234.5 96.5H107.5V166.012C107.5 169.155 109.72 171.919 113.187 173.657C116.644 175.389 121.251 176.043 125.795 174.998L225.031 152.173C230.808 150.844 234.5 147.152 234.5 143.186V96.5Z" stroke="url(#paint12_linear_16_194)"/>
</g>
<path opacity="0.75" d="M126 105.389L176 51V85.6111H206L156 140V105.389H126Z" fill="url(#paint13_linear_16_194)"/>
<path opacity="0.75" d="M136 105.389L186 51V85.6111H216L166 140V105.389H136Z" fill="url(#paint14_linear_16_194)"/>
<circle cx="292" cy="96" r="11.5" fill="#1C1C1C" stroke="url(#paint15_linear_16_194)"/>
<g filter="url(#filter5_f_16_194)">
<circle cx="292" cy="96" r="27" fill="#3B46F1"/>
</g>
<path d="M239 96H264.338C269.861 96 273.966 100.943 277.21 105.412C283.707 114.363 299.47 114.363 305.966 105.412C309.21 100.943 313.315 96 318.838 96H350" stroke="#3B46F1" stroke-dasharray="2 4"/>
<circle cx="239" cy="96" r="2" fill="#7B8EEA"/>
<circle cx="350" cy="96" r="2" fill="#7B8EEA"/>
<path d="M300 96L294 90M300 96L294 102M300 96H286" stroke="white" stroke-width="2" stroke-linecap="round" stroke-linejoin="round"/>
<defs>
<filter id="filter0_d_16_194" x="406" y="0" width="121" height="192.316" filterUnits="userSpaceOnUse" color-interpolation-filters="sRGB">
<feFlood flood-opacity="0" result="BackgroundImageFix"/>
<feColorMatrix in="SourceAlpha" type="matrix" values="0 0 0 0 0 0 0 0 0 0 0 0 0 0 0 0 0 0 127 0" result="hardAlpha"/>
<feOffset dx="13"/>
<feGaussianBlur stdDeviation="8"/>
<feComposite in2="hardAlpha" operator="out"/>
<feColorMatrix type="matrix" values="0 0 0 0 0 0 0 0 0 0 0 0 0 0 0 0 0 0 0.25 0"/>
<feBlend mode="normal" in2="BackgroundImageFix" result="effect1_dropShadow_16_194"/>
<feBlend mode="normal" in="SourceGraphic" in2="effect1_dropShadow_16_194" result="shape"/>
</filter>
<filter id="filter1_d_16_194" x="351" y="0.157959" width="121" height="192.316" filterUnits="userSpaceOnUse" color-interpolation-filters="sRGB">
<feFlood flood-opacity="0" result="BackgroundImageFix"/>
<feColorMatrix in="SourceAlpha" type="matrix" values="0 0 0 0 0 0 0 0 0 0 0 0 0 0 0 0 0 0 127 0" result="hardAlpha"/>
<feOffset dx="13"/>
<feGaussianBlur stdDeviation="8"/>
<feComposite in2="hardAlpha" operator="out"/>
<feColorMatrix type="matrix" values="0 0 0 0 0 0 0 0 0 0 0 0 0 0 0 0 0 0 0.25 0"/>
<feBlend mode="normal" in2="BackgroundImageFix" result="effect1_dropShadow_16_194"/>
<feBlend mode="normal" in="SourceGraphic" in2="effect1_dropShadow_16_194" result="shape"/>
</filter>
<filter id="filter2_i_16_194" x="368" y="62.5399" width="59.7715" height="70.5784" filterUnits="userSpaceOnUse" color-interpolation-filters="sRGB">
<feFlood flood-opacity="0" result="BackgroundImageFix"/>
<feBlend mode="normal" in="SourceGraphic" in2="BackgroundImageFix" result="shape"/>
<feColorMatrix in="SourceAlpha" type="matrix" values="0 0 0 0 0 0 0 0 0 0 0 0 0 0 0 0 0 0 127 0" result="hardAlpha"/>
<feOffset dy="3.55556"/>
<feGaussianBlur stdDeviation="1.77778"/>
<feComposite in2="hardAlpha" operator="arithmetic" k2="-1" k3="1"/>
<feColorMatrix type="matrix" values="0 0 0 0 0 0 0 0 0 0 0 0 0 0 0 0 0 0 0.25 0"/>
<feBlend mode="normal" in2="shape" result="effect1_innerShadow_16_194"/>
</filter>
<filter id="filter3_d_16_194" x="49" y="0" width="142" height="192" filterUnits="userSpaceOnUse" color-interpolation-filters="sRGB">
<feFlood flood-opacity="0" result="BackgroundImageFix"/>
<feColorMatrix in="SourceAlpha" type="matrix" values="0 0 0 0 0 0 0 0 0 0 0 0 0 0 0 0 0 0 127 0" result="hardAlpha"/>
<feOffset dx="13"/>
<feGaussianBlur stdDeviation="8"/>
<feComposite in2="hardAlpha" operator="out"/>
<feColorMatrix type="matrix" values="0 0 0 0 0 0 0 0 0 0 0 0 0 0 0 0 0 0 0.25 0"/>
<feBlend mode="normal" in2="BackgroundImageFix" result="effect1_dropShadow_16_194"/>
<feBlend mode="normal" in="SourceGraphic" in2="effect1_dropShadow_16_194" result="shape"/>
</filter>
<filter id="filter4_d_16_194" x="104" y="0" width="160" height="192" filterUnits="userSpaceOnUse" color-interpolation-filters="sRGB">
<feFlood flood-opacity="0" result="BackgroundImageFix"/>
<feColorMatrix in="SourceAlpha" type="matrix" values="0 0 0 0 0 0 0 0 0 0 0 0 0 0 0 0 0 0 127 0" result="hardAlpha"/>
<feOffset dx="13"/>
<feGaussianBlur stdDeviation="8"/>
<feComposite in2="hardAlpha" operator="out"/>
<feColorMatrix type="matrix" values="0 0 0 0 0 0 0 0 0 0 0 0 0 0 0 0 0 0 0.25 0"/>
<feBlend mode="normal" in2="BackgroundImageFix" result="effect1_dropShadow_16_194"/>
<feBlend mode="normal" in="SourceGraphic" in2="effect1_dropShadow_16_194" result="shape"/>
</filter>
<filter id="filter5_f_16_194" x="215" y="19" width="154" height="154" filterUnits="userSpaceOnUse" color-interpolation-filters="sRGB">
<feFlood flood-opacity="0" result="BackgroundImageFix"/>
<feBlend mode="normal" in="SourceGraphic" in2="BackgroundImageFix" result="shape"/>
<feGaussianBlur stdDeviation="25" result="effect1_foregroundBlur_16_194"/>
</filter>
<linearGradient id="paint0_linear_16_194" x1="498" y1="16" x2="409" y2="96" gradientUnits="userSpaceOnUse">
<stop stop-color="#555555"/>
<stop offset="0.803158" stop-color="#333333"/>
</linearGradient>
<linearGradient id="paint1_linear_16_194" x1="498" y1="16" x2="409" y2="96" gradientUnits="userSpaceOnUse">
<stop stop-color="#555555"/>
<stop offset="0.803158" stop-color="#333333"/>
</linearGradient>
<linearGradient id="paint2_linear_16_194" x1="502.5" y1="16" x2="430.5" y2="80" gradientUnits="userSpaceOnUse">
<stop offset="0.185" stop-color="#666666"/>
<stop offset="0.619551" stop-opacity="0"/>
</linearGradient>
<linearGradient id="paint3_linear_16_194" x1="443" y1="16.158" x2="354" y2="176.158" gradientUnits="userSpaceOnUse">
<stop stop-color="#555555"/>
<stop offset="0.646667" stop-color="#333333"/>
</linearGradient>
<linearGradient id="paint4_linear_16_194" x1="443" y1="16.158" x2="354" y2="176.158" gradientUnits="userSpaceOnUse">
<stop stop-color="#555555"/>
<stop offset="0.646667" stop-color="#333333"/>
</linearGradient>
<linearGradient id="paint5_linear_16_194" x1="398.5" y1="16.158" x2="382.5" y2="80.5" gradientUnits="userSpaceOnUse">
<stop stop-color="#555555"/>
<stop offset="1" stop-color="#BBBBBB" stop-opacity="0"/>
</linearGradient>
<linearGradient id="paint6_linear_16_194" x1="397.803" y1="75.9408" x2="396.645" y2="89.1728" gradientUnits="userSpaceOnUse">
<stop stop-color="#7B8EEA"/>
<stop offset="0.801667" stop-color="#3B46F1"/>
</linearGradient>
<linearGradient id="paint7_linear_16_194" x1="52" y1="16" x2="140.819" y2="114.87" gradientUnits="userSpaceOnUse">
<stop stop-color="#555555"/>
<stop offset="0.577234" stop-color="#333333"/>
</linearGradient>
<linearGradient id="paint8_linear_16_194" x1="52" y1="16" x2="140.819" y2="114.87" gradientUnits="userSpaceOnUse">
<stop stop-color="#555555"/>
<stop offset="0.577234" stop-color="#333333"/>
</linearGradient>
<linearGradient id="paint9_linear_16_194" x1="111" y1="89" x2="107" y2="16" gradientUnits="userSpaceOnUse">
<stop stop-opacity="0"/>
<stop offset="1" stop-color="#666666"/>
</linearGradient>
<linearGradient id="paint10_linear_16_194" x1="107" y1="49" x2="186.76" y2="200.998" gradientUnits="userSpaceOnUse">
<stop stop-color="#555555"/>
<stop offset="0.646667" stop-color="#333333"/>
<stop offset="1" stop-color="#3B46F1"/>
</linearGradient>
<linearGradient id="paint11_linear_16_194" x1="107" y1="49" x2="186.76" y2="200.998" gradientUnits="userSpaceOnUse">
<stop stop-color="#555555"/>
<stop offset="0.646667" stop-color="#333333"/>
<stop offset="1" stop-color="#3B46F1"/>
</linearGradient>
<linearGradient id="paint12_linear_16_194" x1="178.5" y1="52.5" x2="171" y2="16" gradientUnits="userSpaceOnUse">
<stop stop-opacity="0"/>
<stop offset="0.824435" stop-color="#3B46F1"/>
</linearGradient>
<linearGradient id="paint13_linear_16_194" x1="166" y1="51" x2="166" y2="140" gradientUnits="userSpaceOnUse">
<stop stop-color="#878787"/>
<stop offset="1" stop-color="#333333"/>
</linearGradient>
<linearGradient id="paint14_linear_16_194" x1="176" y1="51" x2="176" y2="140" gradientUnits="userSpaceOnUse">
<stop stop-color="#EDEDED"/>
<stop offset="1" stop-color="#878787"/>
</linearGradient>
<linearGradient id="paint15_linear_16_194" x1="292" y1="84" x2="292" y2="108" gradientUnits="userSpaceOnUse">
<stop stop-color="#7B8EEA"/>
<stop offset="0.801667" stop-color="#3B46F1"/>
</linearGradient>
</defs>
</svg>
