<svg width="168" height="150" viewBox="0 0 168 150" fill="none" xmlns="http://www.w3.org/2000/svg">
<g filter="url(#filter0_i_13_36)">
<circle cx="86.0002" cy="75" r="75" fill="#1C1C1C"/>
</g>
<g filter="url(#filter1_i_13_36)">
<path d="M40.5 47.0001C44.4335 51.9174 42.7919 65 35.0002 70.5C26.5002 76.5 15.5002 95 11 75.0002C14.0002 39.5 25.0002 32.5 33.0002 32C40.5 32 36.5002 42 40.5 47.0001Z" fill="#1C1C1C"/>
<path d="M40.5 47.0001C44.4335 51.9174 42.7919 65 35.0002 70.5C26.5002 76.5 15.5002 95 11 75.0002C14.0002 39.5 25.0002 32.5 33.0002 32C40.5 32 36.5002 42 40.5 47.0001Z" fill="url(#paint0_linear_13_36)" fill-opacity="0.8"/>
</g>
<g filter="url(#filter2_i_13_36)">
<path d="M160.999 75.0001C160.999 116.421 127.421 150 85.9994 150C75.5 125 46.9998 122.5 85.9993 82.5C111.837 56 110 44.5001 110 23.5001C121 -9.99988 156.5 37.5 160.999 75.0001Z" fill="#1C1C1C"/>
<path d="M160.999 75.0001C160.999 116.421 127.421 150 85.9994 150C75.5 125 46.9998 122.5 85.9993 82.5C111.837 56 110 44.5001 110 23.5001C121 -9.99988 156.5 37.5 160.999 75.0001Z" fill="url(#paint1_linear_13_36)" fill-opacity="0.8"/>
</g>
<circle cx="161.5" cy="143.5" r="6.5" fill="url(#paint2_linear_13_36)"/>
<g filter="url(#filter3_f_13_36)">
<circle cx="86.5" cy="120.5" r="8.5" fill="#1C1C1C"/>
</g>
<g filter="url(#filter4_f_13_36)">
<circle cx="139" cy="83" r="11" fill="#1C1C1C"/>
</g>
<g opacity="0.13" filter="url(#filter5_f_13_36)">
<circle cx="40.5" cy="107.5" r="8.5" fill="#333333"/>
</g>
<g filter="url(#filter6_f_13_36)">
<circle cx="124" cy="48" r="5" fill="#333333"/>
</g>
<circle opacity="0.27" cx="107" cy="87" r="4" fill="#555555"/>
<circle cx="141.5" cy="6.5" r="4" fill="url(#paint3_linear_13_36)"/>
<circle cx="8" cy="102" r="3" fill="url(#paint4_linear_13_36)"/>
<circle opacity="0.3" cx="59" cy="68" r="8" fill="#555555"/>
<circle cx="59" cy="68" r="4" fill="url(#paint5_linear_13_36)"/>
<g filter="url(#filter7_d_13_36)">
<rect y="12" width="114" height="36" rx="18" fill="url(#paint6_linear_13_36)"/>
</g>
<path fill-rule="evenodd" clip-rule="evenodd" d="M22.47 20.152C22.6289 20.0527 22.8126 20 23 20C23.1874 20 23.3711 20.0527 23.53 20.152L30.434 24.467L23 28.84L15.566 24.467L22.47 20.152ZM14.008 25.871C14.0026 25.9138 13.9999 25.9569 14 26V34C14 34.1696 14.0431 34.3364 14.1254 34.4848C14.2076 34.6331 14.3262 34.7581 14.47 34.848L22 39.554V30.572L14.008 25.871ZM24 39.554L31.53 34.848C31.6738 34.7581 31.7924 34.6331 31.8746 34.4848C31.9569 34.3364 32 34.1696 32 34V26C32 25.9567 31.9973 25.9137 31.992 25.871L24 30.571V39.554Z" fill="white"/>
<path d="M46.112 29.692C46.416 29.74 46.692 29.864 46.94 30.064C47.196 30.264 47.396 30.512 47.54 30.808C47.692 31.104 47.768 31.42 47.768 31.756C47.768 32.18 47.66 32.564 47.444 32.908C47.228 33.244 46.912 33.512 46.496 33.712C46.088 33.904 45.604 34 45.044 34H41.924V25.636H44.924C45.492 25.636 45.976 25.732 46.376 25.924C46.776 26.108 47.076 26.36 47.276 26.68C47.476 27 47.576 27.36 47.576 27.76C47.576 28.256 47.44 28.668 47.168 28.996C46.904 29.316 46.552 29.548 46.112 29.692ZM43.016 29.248H44.852C45.364 29.248 45.76 29.128 46.04 28.888C46.32 28.648 46.46 28.316 46.46 27.892C46.46 27.468 46.32 27.136 46.04 26.896C45.76 26.656 45.356 26.536 44.828 26.536H43.016V29.248ZM44.948 33.1C45.492 33.1 45.916 32.972 46.22 32.716C46.524 32.46 46.676 32.104 46.676 31.648C46.676 31.184 46.516 30.82 46.196 30.556C45.876 30.284 45.448 30.148 44.912 30.148H43.016V33.1H44.948ZM53.0754 34.084C52.2994 34.084 51.5914 33.904 50.9514 33.544C50.3114 33.176 49.8034 32.668 49.4274 32.02C49.0594 31.364 48.8754 30.628 48.8754 29.812C48.8754 28.996 49.0594 28.264 49.4274 27.616C49.8034 26.96 50.3114 26.452 50.9514 26.092C51.5914 25.724 52.2994 25.54 53.0754 25.54C53.8594 25.54 54.5714 25.724 55.2114 26.092C55.8514 26.452 56.3554 26.956 56.7234 27.604C57.0914 28.252 57.2754 28.988 57.2754 29.812C57.2754 30.636 57.0914 31.372 56.7234 32.02C56.3554 32.668 55.8514 33.176 55.2114 33.544C54.5714 33.904 53.8594 34.084 53.0754 34.084ZM53.0754 33.136C53.6594 33.136 54.1834 33 54.6474 32.728C55.1194 32.456 55.4874 32.068 55.7514 31.564C56.0234 31.06 56.1594 30.476 56.1594 29.812C56.1594 29.14 56.0234 28.556 55.7514 28.06C55.4874 27.556 55.1234 27.168 54.6594 26.896C54.1954 26.624 53.6674 26.488 53.0754 26.488C52.4834 26.488 51.9554 26.624 51.4914 26.896C51.0274 27.168 50.6594 27.556 50.3874 28.06C50.1234 28.556 49.9914 29.14 49.9914 29.812C49.9914 30.476 50.1234 31.06 50.3874 31.564C50.6594 32.068 51.0274 32.456 51.4914 32.728C51.9634 33 52.4914 33.136 53.0754 33.136ZM59.809 33.112H62.737V34H58.717V25.636H59.809V33.112ZM69.0447 25.636V26.524H66.7647V34H65.6727V26.524H63.3807V25.636H69.0447ZM71.3128 33.052H75.3928V34H70.0168V33.136L74.0728 26.584H70.0648V25.636H75.3688V26.5L71.3128 33.052Z" fill="white"/>
<defs>
<filter id="filter0_i_13_36" x="11.0002" y="0" width="150" height="160" filterUnits="userSpaceOnUse" color-interpolation-filters="sRGB">
<feFlood flood-opacity="0" result="BackgroundImageFix"/>
<feBlend mode="normal" in="SourceGraphic" in2="BackgroundImageFix" result="shape"/>
<feColorMatrix in="SourceAlpha" type="matrix" values="0 0 0 0 0 0 0 0 0 0 0 0 0 0 0 0 0 0 127 0" result="hardAlpha"/>
<feOffset dy="10"/>
<feGaussianBlur stdDeviation="22.5"/>
<feComposite in2="hardAlpha" operator="arithmetic" k2="-1" k3="1"/>
<feColorMatrix type="matrix" values="0 0 0 0 0.2 0 0 0 0 0.2 0 0 0 0 0.2 0 0 0 1 0"/>
<feBlend mode="normal" in2="shape" result="effect1_innerShadow_13_36"/>
</filter>
<filter id="filter1_i_13_36" x="11" y="32" width="31.5569" height="52.0557" filterUnits="userSpaceOnUse" color-interpolation-filters="sRGB">
<feFlood flood-opacity="0" result="BackgroundImageFix"/>
<feBlend mode="normal" in="SourceGraphic" in2="BackgroundImageFix" result="shape"/>
<feColorMatrix in="SourceAlpha" type="matrix" values="0 0 0 0 0 0 0 0 0 0 0 0 0 0 0 0 0 0 127 0" result="hardAlpha"/>
<feOffset/>
<feGaussianBlur stdDeviation="15"/>
<feComposite in2="hardAlpha" operator="arithmetic" k2="-1" k3="1"/>
<feColorMatrix type="matrix" values="0 0 0 0 0.2 0 0 0 0 0.2 0 0 0 0 0.2 0 0 0 1 0"/>
<feBlend mode="normal" in2="shape" result="effect1_innerShadow_13_36"/>
</filter>
<filter id="filter2_i_13_36" x="66.0891" y="12.1187" width="94.9104" height="137.881" filterUnits="userSpaceOnUse" color-interpolation-filters="sRGB">
<feFlood flood-opacity="0" result="BackgroundImageFix"/>
<feBlend mode="normal" in="SourceGraphic" in2="BackgroundImageFix" result="shape"/>
<feColorMatrix in="SourceAlpha" type="matrix" values="0 0 0 0 0 0 0 0 0 0 0 0 0 0 0 0 0 0 127 0" result="hardAlpha"/>
<feOffset/>
<feGaussianBlur stdDeviation="22.5"/>
<feComposite in2="hardAlpha" operator="arithmetic" k2="-1" k3="1"/>
<feColorMatrix type="matrix" values="0 0 0 0 0.2 0 0 0 0 0.2 0 0 0 0 0.2 0 0 0 1 0"/>
<feBlend mode="normal" in2="shape" result="effect1_innerShadow_13_36"/>
</filter>
<filter id="filter3_f_13_36" x="76" y="110" width="21" height="21" filterUnits="userSpaceOnUse" color-interpolation-filters="sRGB">
<feFlood flood-opacity="0" result="BackgroundImageFix"/>
<feBlend mode="normal" in="SourceGraphic" in2="BackgroundImageFix" result="shape"/>
<feGaussianBlur stdDeviation="1" result="effect1_foregroundBlur_13_36"/>
</filter>
<filter id="filter4_f_13_36" x="126" y="70" width="26" height="26" filterUnits="userSpaceOnUse" color-interpolation-filters="sRGB">
<feFlood flood-opacity="0" result="BackgroundImageFix"/>
<feBlend mode="normal" in="SourceGraphic" in2="BackgroundImageFix" result="shape"/>
<feGaussianBlur stdDeviation="1" result="effect1_foregroundBlur_13_36"/>
</filter>
<filter id="filter5_f_13_36" x="30" y="97" width="21" height="21" filterUnits="userSpaceOnUse" color-interpolation-filters="sRGB">
<feFlood flood-opacity="0" result="BackgroundImageFix"/>
<feBlend mode="normal" in="SourceGraphic" in2="BackgroundImageFix" result="shape"/>
<feGaussianBlur stdDeviation="1" result="effect1_foregroundBlur_13_36"/>
</filter>
<filter id="filter6_f_13_36" x="116" y="40" width="16" height="16" filterUnits="userSpaceOnUse" color-interpolation-filters="sRGB">
<feFlood flood-opacity="0" result="BackgroundImageFix"/>
<feBlend mode="normal" in="SourceGraphic" in2="BackgroundImageFix" result="shape"/>
<feGaussianBlur stdDeviation="1.5" result="effect1_foregroundBlur_13_36"/>
</filter>
<filter id="filter7_d_13_36" x="0" y="12" width="114" height="40" filterUnits="userSpaceOnUse" color-interpolation-filters="sRGB">
<feFlood flood-opacity="0" result="BackgroundImageFix"/>
<feColorMatrix in="SourceAlpha" type="matrix" values="0 0 0 0 0 0 0 0 0 0 0 0 0 0 0 0 0 0 127 0" result="hardAlpha"/>
<feOffset dy="4"/>
<feComposite in2="hardAlpha" operator="out"/>
<feColorMatrix type="matrix" values="0 0 0 0 0.0356225 0 0 0 0 0.0723345 0 0 0 0 0.351346 0 0 0 1 0"/>
<feBlend mode="normal" in2="BackgroundImageFix" result="effect1_dropShadow_13_36"/>
<feBlend mode="normal" in="SourceGraphic" in2="effect1_dropShadow_13_36" result="shape"/>
</filter>
<linearGradient id="paint0_linear_13_36" x1="26.7784" y1="32" x2="26.7784" y2="84.0556" gradientUnits="userSpaceOnUse">
<stop offset="0.186667" stop-opacity="0"/>
<stop offset="1"/>
</linearGradient>
<linearGradient id="paint1_linear_13_36" x1="114.833" y1="31.0103" x2="114.833" y2="150" gradientUnits="userSpaceOnUse">
<stop offset="0.186667" stop-opacity="0"/>
<stop offset="1"/>
</linearGradient>
<linearGradient id="paint2_linear_13_36" x1="155" y1="137" x2="161.5" y2="150" gradientUnits="userSpaceOnUse">
<stop stop-color="#7B8EEA"/>
<stop offset="1" stop-color="#3B46F1"/>
</linearGradient>
<linearGradient id="paint3_linear_13_36" x1="137.5" y1="2.5" x2="141.5" y2="10.5" gradientUnits="userSpaceOnUse">
<stop stop-color="#7B8EEA"/>
<stop offset="1" stop-color="#3B46F1"/>
</linearGradient>
<linearGradient id="paint4_linear_13_36" x1="5" y1="99" x2="8" y2="105" gradientUnits="userSpaceOnUse">
<stop stop-color="#7B8EEA"/>
<stop offset="1" stop-color="#3B46F1"/>
</linearGradient>
<linearGradient id="paint5_linear_13_36" x1="55" y1="64" x2="59" y2="72" gradientUnits="userSpaceOnUse">
<stop stop-color="#7B8EEA"/>
<stop offset="1" stop-color="#3B46F1"/>
</linearGradient>
<linearGradient id="paint6_linear_13_36" x1="57" y1="12" x2="57" y2="48" gradientUnits="userSpaceOnUse">
<stop stop-color="#646EFF"/>
<stop offset="0.801667" stop-color="#3B46F1"/>
</linearGradient>
</defs>
</svg>
