<svg width="601" height="256" viewBox="0 0 601 256" fill="none" xmlns="http://www.w3.org/2000/svg">
<path d="M413.5 126.5L515.3 0.299805H425L394.1 124.4H394.4C401.1 124.4 407.6 125.1 413.5 126.5Z" fill="#FBCB00"/>
<path d="M45.4 74.5H100.3L55.7 252.7H0.800049L45.4 74.5Z" fill="#DE1815"/>
<path d="M174.8 128.4H194.3L184.4 167.8H165.4L143.8 252.7H89.5L111.1 167.8H96.7L106.6 128.4H120.4L131 86.7998H185.3L174.8 128.4Z" fill="#DE1815"/>
<path d="M297.5 174.4C290.3 173.9 285.5 173.4 278.2 174.6C262.1 177.5 254.5 186.7 250.6 202.3L238 252.7H183.6L215 127.2H269.3L261 152.5C261 152.5 276.3 124.4 310.3 124.4L297.5 174.4Z" fill="#DE1815"/>
<path d="M529.4 152.5C543 136.3 550.2 124.4 572.5 124.4C599.4 124.4 605.1 147.8 598.1 175.4L578.8 252.6H523.8L539.1 191.4C540.9 184.1 543.5 173.7 533.7 173.7C524.1 173.7 521.5 184.1 519.6 191.4L504.3 252.6H450.3L481.7 127.2H535.7L529.4 152.5Z" fill="#DE1815"/>
<path d="M413.5 126.5L384.7 162.2L394.1 124.4C355 124.5 316.4 147.6 305.5 191.5C295.1 233.1 324.4 255.5 361.6 255.5C398.8 255.5 439.3 233.1 449.7 191.5C458.8 155.2 441.8 133.1 413.5 126.5ZM400.7 189.9C397.3 203.5 384.3 214.3 371.4 214.3C358.5 214.3 351 203.5 354.4 189.9C357.8 176.3 370.8 165.5 383.7 165.5C396.5 165.5 404.1 176.3 400.7 189.9Z" fill="#DE1815"/>
</svg>
