<svg width="512" height="422" viewBox="0 0 512 422" fill="none" xmlns="http://www.w3.org/2000/svg">
<path d="M156.12 38.1802C182.21 15.8802 215.74 2.13019 250.11 0.580195C288.97 -1.79981 327.4 13.6302 357.42 37.7502C353.91 43.6402 349 48.5502 344.79 54.0202C330.76 71.1302 317.01 88.2502 302.99 105.22C312.53 105.64 322.07 105.64 331.47 105.92C307.62 132.15 283.35 158.24 259.37 184.48C255.44 188.41 252.22 193.32 247.31 196.12C255.31 171.71 264.14 147.72 272.14 123.31C263.02 123.17 253.9 123.45 244.79 123.17C259.8 95.6702 275.65 68.6002 291.08 41.2502C272 41.1102 252.78 41.1102 233.71 41.2502C195.27 101.29 157.26 161.61 118.68 221.65C86.26 161.77 104.08 81.2502 156.12 38.1802Z" fill="#FC7019"/>
<path d="M343.54 271.05C361.64 212.13 379.59 153.21 397.55 94.3003C407.51 109.73 410.6 128.53 412 146.48C414.24 180.43 403.58 214.52 384.22 242.29C372.44 258.84 359.67 275.68 341.86 286.2C313.52 303.03 279.58 309.07 247.03 306.54C214.48 304.3 182.22 292.65 157.39 271.33C157.95 269.51 158.65 267.68 159.63 266.14C175.76 239.49 191.61 212.55 207.75 185.9C208.59 184.78 209.43 183.8 210.42 182.95C214.21 211.01 218 239.06 221.36 267.12C226.83 263.47 231.04 258.42 235.81 254.21C260.5 231.34 284.49 207.92 309.18 185.33C301.75 214.23 293.05 242.7 284.63 271.32C299.22 272.3 313.95 271.88 328.54 271.88C333.58 271.75 338.49 271.47 343.54 271.05Z" fill="#FC7019"/>
<path d="M467.41 339.08C479.33 337.4 491.68 341.18 499.96 350.02C517.5 366.85 515.53 398.84 496.31 413.57C484.25 423.39 465.87 424.23 452.82 416.1C432.9 403.9 428.13 374.58 440.76 355.64C446.79 346.8 456.46 339.78 467.41 339.08ZM469.51 355.78C460.81 357.18 453.52 364.06 451.13 372.47C446.08 386.64 457.44 403.89 472.59 404.87C485.5 404.87 495.88 392.81 495.74 380.32C496.73 366.44 483.54 353.25 469.51 355.78Z" fill="#010203"/>
<path d="M-0.0100098 417.92C17.67 391.27 36.46 365.45 54.56 339.08C61.29 338.94 68.17 339.08 74.9 339.08C74.9 351.14 74.76 363.07 75.04 375.13C83.32 363.35 91.17 351.14 99.17 339.08C105.48 339.08 111.8 339.08 118.11 339.08C118.11 365.45 118.11 391.83 118.11 418.06C111.24 418.06 104.22 418.06 97.35 418.06C97.21 404.87 97.49 391.69 97.21 378.36C88.23 391.27 79.96 404.73 71.26 418.06C64.53 418.06 57.79 418.2 51.06 417.92C51.06 405.15 51.34 392.39 50.92 379.62C42.5 392.53 33.67 405.15 25.25 418.06C16.82 418.06 8.40999 418.06 -0.0100098 417.92Z" fill="#010203"/>
<path d="M129.47 339.36C143.92 339.22 158.23 339.36 172.68 339.36C172.68 345.25 172.68 351.28 172.68 357.18C164.96 357.18 157.11 357.18 149.39 357.18C148.97 360.97 148.97 364.9 148.97 368.68C156.83 368.82 164.68 368.82 172.54 368.82C172.68 374.99 172.68 381.02 172.4 387.2C164.54 387.2 156.69 386.78 148.83 387.48C148.97 391.83 148.97 396.18 148.97 400.53C156.83 400.67 164.68 400.67 172.68 400.67C172.68 406.7 172.68 412.59 172.68 418.63C158.23 418.63 143.92 418.77 129.47 418.63C129.47 392.11 129.47 365.74 129.47 339.36Z" fill="#010203"/>
<path d="M183.76 339.36C194.28 339.5 204.66 339.08 215.18 339.64C223.18 340.06 230.05 345.25 233.56 352.27C238.47 359.7 237.49 368.96 236.23 377.24C235.25 383.69 230.48 389.3 224.59 391.83C227.96 400.67 232.73 408.8 237.22 417.08C246.62 391.13 255.88 365.18 265.42 339.22C271.73 339.22 278.05 339.22 284.5 339.22C293.9 365.59 303.58 391.83 312.7 418.2C306.25 418.34 299.93 418.34 293.48 418.2C291.8 413.71 289.83 409.36 287.87 405.15C279.03 405.29 270.19 405.15 261.5 405.15C259.68 409.5 257.85 413.71 256.17 418.06C242.84 418.34 229.66 418.2 216.33 418.06C212.26 411.05 208.75 403.61 203.85 397.16C203.57 404.17 203.71 411.19 203.71 418.2C197.12 418.2 190.66 418.2 184.07 418.2C183.76 392.11 183.76 365.74 183.76 339.36ZM203.12 356.9C203.12 364.48 203.12 371.91 203.12 379.49C207.89 379.35 213.22 379.49 217.29 376.4C222.06 373.03 221.78 365.32 217.57 361.53C213.78 357.74 208.17 357.46 203.12 356.9ZM274.38 363.91C271.57 371.63 268.91 379.34 266.38 387.06C271.71 387.06 277.04 387.06 282.37 387.06C280.41 379.2 277.89 371.35 274.38 363.91Z" fill="#010203"/>
<path d="M314.5 339.36C320.95 339.36 327.55 339.36 334.14 339.36C334.14 359.7 334.14 379.9 334.14 400.24C341.43 400.24 348.87 400.24 356.16 400.38C356.16 406.41 356.16 412.3 356.16 418.34C342.27 418.62 328.38 418.48 314.5 418.48C314.5 392.11 314.5 365.74 314.5 339.36Z" fill="#010203"/>
<path d="M370.89 347.22C379.73 338.66 393.19 337.54 404.7 339.79C416.62 342.88 425.46 353.12 429.25 364.34C423.36 364.34 417.47 364.34 411.71 364.34C405.82 357.33 396 352.56 386.88 356.48C371.87 362.23 367.38 383.41 376.92 395.76C382.11 403.34 392.77 407.26 401.47 403.48C405.12 402.22 407.78 399.41 410.31 396.61C416.48 396.47 422.65 396.47 428.83 396.61C424.9 405.45 419.01 414.15 409.89 418.07C397.12 423.82 380.43 422.28 370.05 412.46C351.39 396.32 351.53 363.07 370.89 347.22Z" fill="#010203"/>
</svg>
